<svg id="visual" viewBox="0 0 900 600" width="900" height="600" xmlns="http://www.w3.org/2000/svg" xmlns:xlink="http://www.w3.org/1999/xlink" version="1.1"><rect x="0" y="0" width="900" height="600" fill="#514a5d"></rect><path d="M0 487L21.5 490.3C43 493.7 86 500.3 128.8 506.5C171.7 512.7 214.3 518.3 257.2 515.8C300 513.3 343 502.7 385.8 492.7C428.7 482.7 471.3 473.3 514.2 475C557 476.7 600 489.3 642.8 492.7C685.7 496 728.3 490 771.2 482.8C814 475.7 857 467.3 878.5 463.2L900 459L900 601L878.5 601C857 601 814 601 771.2 601C728.3 601 685.7 601 642.8 601C600 601 557 601 514.2 601C471.3 601 428.7 601 385.8 601C343 601 300 601 257.2 601C214.3 601 171.7 601 128.8 601C86 601 43 601 21.5 601L0 601Z" fill="#3f394a"></path><path d="M0 528L21.5 528.8C43 529.7 86 531.3 128.8 535.7C171.7 540 214.3 547 257.2 545.8C300 544.7 343 535.3 385.8 529.5C428.7 523.7 471.3 521.3 514.2 523C557 524.7 600 530.3 642.8 537.3C685.7 544.3 728.3 552.7 771.2 554C814 555.3 857 549.7 878.5 546.8L900 544L900 601L878.5 601C857 601 814 601 771.2 601C728.3 601 685.7 601 642.8 601C600 601 557 601 514.2 601C471.3 601 428.7 601 385.8 601C343 601 300 601 257.2 601C214.3 601 171.7 601 128.8 601C86 601 43 601 21.5 601L0 601Z" fill="#342f3d"></path></svg>