<svg id="visual" viewBox="0 0 900 600" width="900" height="600" xmlns="http://www.w3.org/2000/svg" xmlns:xlink="http://www.w3.org/1999/xlink" version="1.1"><rect x="0" y="0" width="900" height="600" fill="#342f3d"></rect><path d="M0 452L15 447C30 442 60 432 90 425.2C120 418.3 150 414.7 180 419.2C210 423.7 240 436.3 270 436C300 435.7 330 422.3 360 419.8C390 417.3 420 425.7 450 425C480 424.3 510 414.7 540 415.5C570 416.3 600 427.7 630 434.8C660 442 690 445 720 446.3C750 447.7 780 447.3 810 445.3C840 443.3 870 439.7 885 437.8L900 436L900 601L885 601C870 601 840 601 810 601C780 601 750 601 720 601C690 601 660 601 630 601C600 601 570 601 540 601C510 601 480 601 450 601C420 601 390 601 360 601C330 601 300 601 270 601C240 601 210 601 180 601C150 601 120 601 90 601C60 601 30 601 15 601L0 601Z" fill="#332e3b"></path><path d="M0 487L15 486.7C30 486.3 60 485.7 90 488C120 490.3 150 495.7 180 497C210 498.3 240 495.7 270 490.2C300 484.7 330 476.3 360 477.3C390 478.3 420 488.7 450 488.8C480 489 510 479 540 473C570 467 600 465 630 465.7C660 466.3 690 469.7 720 468.3C750 467 780 461 810 464.5C840 468 870 481 885 487.5L900 494L900 601L885 601C870 601 840 601 810 601C780 601 750 601 720 601C690 601 660 601 630 601C600 601 570 601 540 601C510 601 480 601 450 601C420 601 390 601 360 601C330 601 300 601 270 601C240 601 210 601 180 601C150 601 120 601 90 601C60 601 30 601 15 601L0 601Z" fill="#3f394a"></path><path d="M0 524L15 518.7C30 513.3 60 502.7 90 500.3C120 498 150 504 180 509.7C210 515.3 240 520.7 270 524.8C300 529 330 532 360 526C390 520 420 505 450 498C480 491 510 492 540 497.3C570 502.7 600 512.3 630 516.2C660 520 690 518 720 516.7C750 515.3 780 514.7 810 515C840 515.3 870 516.7 885 517.3L900 518L900 601L885 601C870 601 840 601 810 601C780 601 750 601 720 601C690 601 660 601 630 601C600 601 570 601 540 601C510 601 480 601 450 601C420 601 390 601 360 601C330 601 300 601 270 601C240 601 210 601 180 601C150 601 120 601 90 601C60 601 30 601 15 601L0 601Z" fill="#514a5d"></path><path d="M0 538L15 539.7C30 541.3 60 544.7 90 544.2C120 543.7 150 539.3 180 536.8C210 534.3 240 533.7 270 538.3C300 543 330 553 360 558.3C390 563.7 420 564.3 450 562.8C480 561.3 510 557.7 540 554.3C570 551 600 548 630 546.3C660 544.7 690 544.3 720 546.3C750 548.3 780 552.7 810 551.5C840 550.3 870 543.7 885 540.3L900 537L900 601L885 601C870 601 840 601 810 601C780 601 750 601 720 601C690 601 660 601 630 601C600 601 570 601 540 601C510 601 480 601 450 601C420 601 390 601 360 601C330 601 300 601 270 601C240 601 210 601 180 601C150 601 120 601 90 601C60 601 30 601 15 601L0 601Z" fill="#696275"></path></svg>